<svg xmlns="http://www.w3.org/2000/svg" width="32.75" height="29.678" viewBox="0 0 32.75 29.678">
  <path id="Path_127" data-name="Path 127" d="M31.988,30.25a.625.625,0,0,0-.625-.623H5.24L4.508,25.1a.625.625,0,0,0-.617-.525H.625a.625.625,0,0,0,0,1.25H3.359l.73,4.517.582,4.5v0l1.49,10.864a2.346,2.346,0,0,0,2.192,2.025,3.469,3.469,0,1,0,5.3,0H21.34a3.468,3.468,0,1,0,5.268-.043,3.363,3.363,0,0,0,2.766-2.859l1.3-9.45h.7A.625.625,0,0,0,32,34.756Zm-1.248.627.008,3.256H5.841l-.422-3.256ZM13.222,49.993A2.219,2.219,0,1,1,11,47.734,2.242,2.242,0,0,1,13.222,49.993Zm10.77,2.259a2.259,2.259,0,1,1,2.218-2.259A2.242,2.242,0,0,1,23.992,52.252Zm4.143-7.59a2.1,2.1,0,0,1-2.056,1.822H8.467A1.089,1.089,0,0,1,7.4,45.536L6.008,35.383h23.4Z" transform="translate(0.375 -24.199)" stroke="#000d0d" stroke-width="0.75"/>
</svg>
