<svg xmlns="http://www.w3.org/2000/svg" width="28.6" height="28.6" viewBox="0 0 28.6 28.6">
  <path id="search" d="M28.558,25.5l-6.9-6.931A11.038,11.038,0,0,0,24.4,11.3,11.526,11.526,0,0,0,12.693,0,11.526,11.526,0,0,0,.984,11.3a11.526,11.526,0,0,0,11.709,11.3A11.872,11.872,0,0,0,19.4,20.564l6.955,6.984a1.566,1.566,0,0,0,2.159.041A1.441,1.441,0,0,0,28.558,25.5ZM12.693,2.949A8.519,8.519,0,0,1,21.348,11.3a8.519,8.519,0,0,1-8.655,8.356A8.519,8.519,0,0,1,4.039,11.3,8.519,8.519,0,0,1,12.693,2.949Z" transform="translate(-0.684 0.3)" stroke="#fff" stroke-width="0.6"/>
</svg>
